<?xml version="1.0" encoding="UTF-8"?>
<svg version="1.1" viewBox="0 0 2000 2000" width="1280" height="1280" xmlns="http://www.w3.org/2000/svg">
<path transform="translate(0)" d="m0 0h2e3v2e3h-2e3z" fill="#FDFDFE"/>
<path transform="translate(1153,701)" d="m0 0 4 2 13 30 14 30 12 27 12 26 13 29 9 20 13 29 5 10 7 16 19 42 14 31 13 29 9 20 3 10v8l-3 9-8 10-10 7-34 16-29 13-37 17-35 16-14 6-1 64v22h2l1-34 4-8 7-6 5-2h7l6 4 5 8 1 4 1 34h3v-32l3-6 6-5 5-2h7l6 4 5 6 1 2v34l3-1 1-21 4-7 12-6h6l6 4 6 9 1 3v83l-1 19-3 14-4 10-7 11-11 12-5 4-4 1h-78l-7-2-8-7-10-13-14-19-14-17-7-9-12-15-11-14-6-9-1-10 3-6 7-6 5-2h7l8 7 10 11 10 13 5 4v-111l-9 3-27 13-20 9-35 16-31 14-1 2h10v13l-3 11-2 1-17-2-8-1-10 64-1 3-18-2-7-2v-8l8-58-5-2-19-3-3-1 1-13 1-9 1-2 8-1-9-23-7-22-5-20-4-22-2-19-1-18v-13l4-36 6-29 5-18 4-4 23-12 10-8h2l2-4 8-8 12-18 7-16 3-9 3-17v-16l-2-17-2-11 9-13 13-16 9-11 14-15 33-33 10-8 14-12 15-11 30-20 25-14z" fill="#5545FA"/>
<path transform="translate(1017,446)" d="m0 0 11 1 10 5 8 8 9 17 5 12 15 32 5 12 16 35 7 15-1 3-16 6-38 18-18 10-19 12-17 12-18 13-16 13-13 11-12 11-27 27-11 14-9 10-11 14-10 13-7 9-5 4-11 2-16 6-11 6-11 8-14 14-12 17-7 15-5 15-3 3-17-37-9-20-12-27-7-15-16-36-13-29-7-15-16-35-7-17-1-5v-9l3-9 7-10 13-8 34-16 27-12 15-7 33-15 26-12 70-32 27-12 15-7 20-9 12-6 24-11 20-9z" fill="#3B9EFE"/>
<path transform="translate(1236,600)" d="m0 0h21l27 2 26 5 26 7 2 1v2h-22l-33 2-32 5-25 6-30 9-23 8-23 10-20 10-23 13-13 8-18 12-16 12-13 11-10 8-11 10-8 7-8 8-8 7-12 13-9 10-7 8-13 16-11 15-7 10-10 14v7l7 15 2 10v16l-4 16-8 15-9 10-8 7-15 8-18 6-3 4-9 27-8 30-6 31-4 33-1 15v39l3 32 6 36 1 3 6 1 11 7 6 8 3 8v15l-4 11-4 7-10 6 1 6 9 24v4l-27-4-3-3-8-23-3-3-5-1-2 1-5 25-17-2-9-2 2-17 8-56 3-19 23 1-8-20-8-24-6-25-4-25-2-28v-23l3-43 4-27 10-40 2-5v-7l-9-12-8-17-2-10v-11l4-18 8-17 8-10 7-7 10-6 11-4 8-2 18-1 3-1 2-5 13-18 11-15 8-10 14-17 14-15 17-17 8-7 13-12 11-9 13-10 14-10 15-10 20-12 12-6 19-10 20-9 24-9 20-6 17-4 21-4 21-3z" fill="#A2D9FF"/>
<path transform="translate(1153,701)" d="m0 0 4 2 13 30 14 30 12 27 12 26 13 29 9 20 13 29 5 10 4 9-1 2-4-2 2 4v8l1 2h-2l-1 4-6-2-5-5-6-5-10-5-9-2-9-3-2-1v3l-17-4-11-3h-25l-8-3v-2l-7 1h-9l-7 1-9 2-16 5-12 6-14 8-3 1v2l-8 2v2l-3 2-7 2-3 2-3-1h-3l-1 4-8 4-14 5-8 2-9 4-7 6-5 5-5 3-14 9-9 6-9 2 1-4h2l2-4 3-4h2l2-5 4-5 2-10 8-16 6-15 4-21v-16l-2-17-2-11 9-13 13-16 9-11 14-15 33-33 10-8 14-12 15-11 30-20 25-14z" fill="#4D67FD"/>
<path transform="translate(1122,1143)" d="m0 0h7l6 4 7 7v86h2l1-34 4-8 7-6 5-2h7l6 4 5 8 1 4 1 34h3v-32l3-6 6-5 5-2h7l6 4 5 6 1 2v34l3-1 1-21 4-7 12-6h6l6 4 6 9 1 3v83l-1 19-3 14-4 10-7 11-11 12-5 4-4 1h-78l-7-2-8-7-10-13-14-19-14-17-7-9-12-15-11-14-6-9-1-10 3-6 7-6 5-2h7l8 7 10 11 10 13 5 4v-120l3-9 7-8z" fill="#1D95C3"/>
<path transform="translate(1153,701)" d="m0 0 4 2 13 30 14 30 12 27 12 26 5 12v3h-3l2 12-2 1-4-4-7-6-6-7-1-2-4-2-2-4-6-3-3 1-6-1 2 3v8h-8-4l-1 2-13-3-6-2h-10l-16-1-2-2-5 1-2-2-26 1h-8l-10-1-6 2h-4l-1-3 1-3h2l1-4-10 4v-2-1l-12 13h-2v-3l-11 10-11 6v-2l-4 3 2 2-9 6h-2l-2 4-5 5h-3l-2 2-1-4 2-2 2-6 2-1-1-4 11-14 12-14 11-12 34-34 10-8 14-12 15-11 30-20 25-14z" fill="#497FFE"/>
<path transform="translate(750,927)" d="m0 0h9l13 3 12 7 9 10 6 12 2 8v14l-3 11-6 10-9 9-16 8-13 2-13-2-14-7-7-6-6-8-4-8-2-7v-17l4-13 7-10 10-9 10-5z" fill="#4E67FD"/>
<path transform="translate(811,1202)" d="m0 0h8l31 4 15 4 11 7 6 8 3 8v15l-4 11-4 7-10 6 1 6 9 24v4l-27-4-3-3-8-23-3-3-5-1-2 1-5 25-17-2-9-2 2-17 8-56z" fill="#1D95C4"/>
<path transform="translate(1286,1270)" d="m0 0 39 6 16 5 9 7 6 9 2 7v15l-3 8-6 9-8 6-9 4-5 1h-11l-9-2h-5l-3 21-1 1-10-1-16-3 1-12 12-80z" fill="#1D95C3"/>
<path transform="translate(1389,1286)" d="m0 0 16 1 28 5 11 4 9 6 7 10 2 7v14l-4 11-5 7-8 6-10 4-5 1-16-1-8-1-3 22-11-1-15-2-1-5z" fill="#1D95C3"/>
<path transform="translate(1171,693)" d="m0 0h5l6 7 7 14 16 36 16 35 13 29 36 80 38 84 15 33 13 30 2 7v9l-5 10-9 10-6 5h-5l4-7 4-8 2-8v-8l-4-15-17-37-7-16-7-15-7-16-7-15-12-26-15-33-13-29-12-26-9-20-19-42-12-26-11-24-6-12 1-4z" fill="#3B9EFE"/>
<path transform="translate(726,1189)" d="m0 0 22 3 4 2 8 33 14 62v2l-11-1-16-3-2-1-2-11-4-2-22-3h-7l-6 11-23-3-4-1 1-4 13-24 12-21 14-25 7-12z" fill="#1D95C4"/>
<path transform="translate(1158,1079)" d="m0 0 9 1 6 4 4 5 2 4v8l-4 8-9 6-30 14-27 12-30 14-13 5h-10l-8-6-4-7v-9l5-8 5-4 22-11 36-16 28-13 14-6z" fill="#FBFCFE"/>
<path transform="translate(515,1158)" d="m0 0h8l14 3 10 5 5 4 6 9 2 5v11h-8l-15-3-3-5-2-4-8-3-7 1-2 2v6l4 4 26 13 7 7 4 8 1 3v8l-3 9-5 7-9 6-5 2-6 1-16-1-10-3-10-6-7-8-4-9v-11l15 1 9 1 4 10 9 4 6-1 4-3-1-7-8-5-13-6-9-6-8-9-2-6v-12l3-8 6-7 9-5z" fill="#1D95C4"/>
<path transform="translate(1240,660)" d="m0 0 14 2 10 5 8 8 6 12 1 3v15l-4 11-7 9-8 6-11 4-8 1-16-4-10-7-6-9-4-10-1-11 3-13 8-11 8-6 10-4z" fill="#5545FA"/>
<path transform="translate(1153,701)" d="m0 0 4 2 13 30 12 26-1 2-4-2 1 10 2 3-1 6-5 1-11-9-6-4-11-2-14-3-1-3-5-3-6 2-6 1-11 1-15 4-9 2-8 4h-2l1-5 3-5v-5l16-13 24-16 14-9z" fill="#3B9DFE"/>
<path transform="translate(588,1170)" d="m0 0h8l74 11 1 1-1 11-3 13-12-1-14-2-2 6-9 58-1 3-11-1-14-2v-9l8-55-1-4-25-4-1-1 1-12z" fill="#1D95C3"/>
<path transform="translate(913,1217)" d="m0 0h10v2l27 3 7 2 12 1 7 2 19 1v13l-3 11-2 1-17-2-8-1-10 64-1 3-18-2-7-2v-8l8-58-5-2-19-3-3-1 1-13 1-9z" fill="#1D95C4"/>
<path transform="translate(1171,693)" d="m0 0h5l6 7 7 14 16 36 16 35 13 29 18 40 14 31-1 2-6-10-11-10-1-3-7-2-9-20-7-15-13-29-7-15-12-26-19-42-8-16 1-4z" fill="#4D67FD"/>
<path transform="translate(905,1458)" d="m0 0h15l8 5 7 8 4 12v9l-3 10-9 10-6 3-4 1h-12l-7-3-8-7-4-8-1-4v-14l4-11 8-8z" fill="#F8FBFE"/>
<path transform="translate(1072,1458)" d="m0 0h14l8 4 7 7 4 10v17l-5 10-8 7-8 3h-12l-10-5-6-7-4-11v-12l3-9 4-6 7-6z" fill="#F8FBFE"/>
<path transform="translate(1223,1458)" d="m0 0h14l8 4 7 7 4 9v18l-5 10-9 8-7 2h-12l-10-5-6-7-3-7-1-6v-9l3-11 9-10z" fill="#F7FBFE"/>
<path transform="translate(905,526)" d="m0 0 5 2 5 6v6l-5 5-6 4-36 16-24 11-30 13-7 1-6-8-1-6 7-6 27-13 33-15 28-13z" fill="#F3F9FE"/>
<path transform="translate(1046,443)" d="m0 0h7l10 4 6 5 8 14 13 28 18 40 13 30 1 8-5 7-5 1-7-15-16-35-16-36-13-28-8-14-6-7z" fill="#5545FA"/>
<path transform="translate(757,488)" d="m0 0h12l8 5 5 6 3 7v8l-3 7-5 6-9 5h-11l-9-6-5-6-2-5v-12l6-9 7-5z" fill="#3A9DFD"/>
<path transform="translate(1014,1458)" d="m0 0h4l1 9v48h-11l-6-9-15-28-5-5 1 3v38l-1 1h-8l-1-1v-54l1-1h11l6 10 15 28 4 4-1-20v-21z" fill="#1198D8"/>
<path transform="translate(1315,1457)" d="m0 0 12 2 6 4 6 7 2 6-9-1-4-5-7-3h-10l-8 4-4 8-1 10 2 9 4 6 8 4h9l7-4 3-4v-7l-11-1v-6l2-1h20v28l-1 2h-6l-1-3-6 1-7 3h-12l-10-5-6-7-4-10v-14l4-11 8-8 8-3z" fill="#0F98D6"/>
<path transform="translate(905,1458)" d="m0 0h15l8 5 7 8 4 12v9l-3 10-9 10-6 3-4 1h-12l-7-3-8-7-4-8-1-4v-14l4-11 8-8zm1 8-7 4-5 9v16l3 6 4 5 6 3h8l8-4 6-8 1-5v-9l-3-10-7-6-2-1z" fill="#0F98D6"/>
<path transform="translate(1072,1458)" d="m0 0h14l8 4 7 7 4 10v17l-5 10-8 7-8 3h-12l-10-5-6-7-4-11v-12l3-9 4-6 7-6zm1 8-8 5-4 8v16l4 8 6 5 3 1h8l8-4 6-8 1-4v-10l-2-8-6-7-4-2z" fill="#0F98D6"/>
<path transform="translate(1223,1458)" d="m0 0h14l8 4 7 7 4 9v18l-5 10-9 8-7 2h-12l-10-5-6-7-3-7-1-6v-9l3-11 9-10zm2 8-7 3-5 7-2 9v7l4 10 7 6 3 1h8l7-3 6-7 2-5v-13l-3-8-7-6-3-1z" fill="#0F98D6"/>
<path transform="translate(810,1458)" d="m0 0 5 1 1 23h25l1-22 2-2h7v57h-9l-1-23-25-1-1 24h-8l-1-1 1-55z" fill="#0F98D6"/>
<path transform="translate(677,1458)" d="m0 0h13l1 1v7l-5 1h-17l-6 1v15h25v7l-1 1h-18l-6 1v14l1 1 27 1 1 6-1 1h-37v-56z" fill="#0F98D5"/>
<path transform="translate(747,1457)" d="m0 0 10 1 8 4 6 7 2 4v3l-7-1-9-7-3-1h-11l-6 4-4 8-1 13 4 10 5 5 3 1h9l7-4 7-7 5-1 1 4-4 7-8 7-7 2h-11l-10-5-6-7-3-6-1-5v-11l2-8 4-7 8-7z" fill="#0F98D7"/>
<path transform="translate(1373,1458)" d="m0 0h7l5 6 11 19 3 1 1-5 8-14 4-5 5-2h5l-2 5-16 27-2 3v20l-2 2h-7l-1-20-8-16-10-16-2-4z" fill="#1098D6"/>
<path transform="translate(592,1458)" d="m0 0h28l3 1-1 7-18 1v48h-8l-1-1v-47l-17-1-1-7z" fill="#0D98D4"/>
<path transform="translate(1227,815)" d="m0 0 4 2 5 5 4 5 12 27 14 31-1 2-6-10-11-10-1-3-7-2-9-20-7-15 2-3v-3h2z" fill="#497FFE"/>
<path transform="translate(1171,693)" d="m0 0h5l6 7 7 14 7 15v6l2 3-2 5-1 2-4-1-4-2-3-3-13-28-6-12 1-4z" fill="#5548FA"/>
<path transform="translate(1142,1458)" d="m0 0h5l1 1 1 49h24l1 1v5l-1 1h-33v-56z" fill="#0D97D3"/>
<path transform="translate(1309,1297)" d="m0 0 9 1 8 3 5 5v8l-4 6-4 3-9 1-9-2v-9l3-15z" fill="#F6FAFE"/>
<path transform="translate(1413,1312)" d="m0 0 10 1 8 4 4 4v8l-4 6-4 3-9 1-8-2-1-1v-8l3-15z" fill="#F7FBFE"/>
<path transform="translate(836,1227)" d="m0 0 11 2 6 3 4 4 1 8-3 5-4 3h-16l-3-1-1-2 1-11 2-9z" fill="#F4FAFE"/>
<path transform="translate(659,761)" d="m0 0h9l5 5 1 2v8l-4 5-5 2-7-1-5-6v-11z" fill="#3B9EFE"/>
<path transform="translate(732,1225)" d="m0 0h3l5 22v5h-10l-10-2 1-5z" fill="#F2F9FE"/>
<path transform="translate(982,1476)" d="m0 0h1v38l-1 1h-8l-1-1 1-27h1l1 5 3-1z" fill="#1298D9"/>
<path transform="translate(1142,1154)" d="m0 0h1l1 7v40l4-2-2 7-1 34h-4v-22z" fill="#A2D9FF"/>
<path transform="translate(977,1470)" d="m0 0 5 1v11l-2 9-4 2-2-6v-15z" fill="#1C95C2"/>
<path transform="translate(1187,1200)" d="m0 0 2 1-3 4-1 3-1 32h-3l-1-7-1-30 3 3z" fill="#A2D9FF"/>
<path transform="translate(1217,1207)" d="m0 0 2 4 1 7 3-3-1 4-1 21-4 1z" fill="#AADCFE"/>
<path transform="translate(1068,1247)" d="m0 0h7l3 3-7-1v2h-7l-7 6-2 4-1-3 7-8z" fill="#1C9AE3"/>
<path transform="translate(1198,1195)" d="m0 0h7l6 4 1 2-5-2-1-1h-7l-8 3-4 2 4-5z" fill="#219AE7"/>
<path transform="translate(1168,694)" d="m0 0 3 1-3 7-3-3 1-4z" fill="#4E67FD"/>
</svg>
