<?xml version="1.0" encoding="UTF-8"?>
<svg version="1.1" viewBox="0 0 1632 816" width="1280" height="1280" xmlns="http://www.w3.org/2000/svg">
<path transform="translate(0)" d="m0 0h1632v816h-1632z" fill="#FEFEFE"/>
<path transform="translate(780,138)" d="m0 0h311v1h73v-1h43l101 1 20 2 21 5 21 10 12 9 14 12 10 9 8 8 9 13 9 17 4 11 3 15 1 12v51l-2 14-8 28-6 11-10 13-9 10-15 12h-2l1 5 24 14 8 8 9 14 10 19 6 18 4 19 1 11v35l-2 17-4 17-5 15-8 15-10 14-11 12-8 8-15 10-14 8-19 8-16 4-20 2h-538l-1-16z" fill="#687082"/>
<path transform="translate(100,141)" d="m0 0h92l5 3 10 15 9 11 12 15 14 20 11 17 16 25 14 22 8 10 11 13 9 11 8 12 11 15 14 25 10 13 10 15 9 13 6 8 10 10 8 11 3 13 4 1h9l8-20 7-8 7-10 5-6 4-8 2-5 4-1 6-10 2-6 6-3 11-14 6-11 1-4 4-4 20-30 7-9 9-13 9-14 10-14 12-15 13-18 9-12 12-17 13-20 8-13 6-12 129-1 1 8v513l-4 1-118-1-1-73v-81l2-155-4 2-11 14-10 14-16 24-11 16-6 9-4 7-7 9-11 13-11 14-11 16-9 13-6 10-10 16-9 13-11 16-9 10-13 17-7 11-12 20-11 17-7 10-3 4-5 2h-7l-5-5-6-10-7-9-5-5-6-7-9-15-7-11-8-12-9-12-16-24-8-11-8-13-8-11-13-15-10-14-14-20-10-15-10-18-11-16-12-17-12-14-13-16-5-6v197l1 111h-123l-1-29-1-64v-180l1-149 1-98z" fill="#3262CE"/>
<path transform="translate(906,470)" d="m0 0h397l10 4 9 7 5 10 1 5v21l-3 14-5 10-8 7-4 2-13 1-387 1-1-1-1-61z" fill="#FEFEFE"/>
<path transform="translate(907,265)" d="m0 0h364l28 1 4 2v2l4 2 7 12 3 10v21l-4 13-6 9-5 3-7 1-257 1h-79l-51 1-1-1-1-76z" fill="#FEFEFE"/>
<path transform="translate(968,255)" d="m0 0 3 3 3 1h8l7-1 5 1 6-1 2 1 3-1v2l6-2v2l6-2 5 1h4l6-1h13l23 1h49l2 1 1-2 2 1h73l4-2 2 2h44l3 1 4-1 4 1h6l2 3 30 1v1l-387 1v79l386-1h7v1l-5 1-33 1h-13l-1 3-1-2h-6l-6 3-6-1-2 1h-7-3-19l-9-1-22-2h-75l-9 1h-68l-12 1-4-1-4 1-2-2h-6l-1 3-3-1-1-2h-27l-2 2-6-2-7 2-2-1v2l4 1-2 2h-8l-2 1h-11l-1-2 4-1-4-1-1-3-1 4-5-3-1 5-7 1-1-3h3v-4l-4-1 3-1 1-12h-5l-1-2 6 1-1-16h-3l-1-4 3-1h-2l-1-8v-3l1-4-1-4 4 2-1 6h2l-1-37 9-1 2-3h6l1-3h2l2 4 5-1v2l8-1 3-2v2l6-3 4 2 6-2 10 1z" fill="#5D6579"/>
<path transform="translate(738,143)" d="m0 0 5 1 1 5v513l-4 1-71-2v-1l23-1 5-1 23-1h3l2-2 5-1 4-11 2-8-1-2 1-8 1-16 1-9-1-5v-22l1-3-1-4v-21l1-3-1-4 1-14v-54l1-13v-48l-1-6 1-22v-71l-1-4 1-77-1-16v-21l1-6-1-3 1-7-1-4 2-16-2-1-2-8-2-3z" fill="#2754C9"/>
<path transform="translate(827,141)" d="m0 0h382l41 1 14 1v1l-39 1-9 1h-27l-41-1-88 1-37 1h-84l-3 1-4-1-9 1h-5-4l-8 1v-2h-2l-1 2-2-1-1 2-7-1-3 1-6-1-8 1-7-1-5 1-14-2-5 1-4-1-5 1-12-1h-14l-10-2-7-1-2 2-4 2v4l-1 2h-2l-1 2v111h2l-1 3h-2l1 30v64l-1 4 2 1h-2l1 3v50l2 4-2 6 1 3 3 1v2l-4 1-2 2v-300z" fill="#5D6579"/>
<path transform="translate(906,277)" d="m0 0h1v68l386-1h7v1l-5 1-33 1h-13l-1 3-1-2h-6l-6 3-6-1-2 1h-7-3-19l-9-1-22-2h-75l-9 1h-68l-12 1-4-1-4 1-2-2h-6l-1 3-3-1-1-2h-27l-2 2-6-2-7 2-2-1v2l4 1-2 2h-8l-2 1h-11l-1-2 4-1-4-1-1-3-1 4-5-3-1 5-7 1-1-3h3v-4l-4-1 3-1 1-12h-5l-1-2 6 1z" fill="#5D6579"/>
<path transform="translate(903,551)" d="m0 0h403v1h-10v2l-9-1-12 1-5 1-1-1h-77l-126 1v1h-57-1l-1-2-22 1-4-1-5 2v-2h-7l-1 2-2-2h-3l-1 2v-2h-8l-6 2v-2l-5 2h-8l-1-1-13 2-2 3v-4l-9 1h-3-6l1-3 2 1z" fill="#60687C"/>
<path transform="translate(950,666)" d="m0 0 2 2 6-1v2l2 1 1-2h7v2h2l-1-4 6 2 2-1 2 2 5-2v2l6-2v2l4 1v-2h6v2l5-2 3 1v-2l2 1-1 2 6-2h3l4 1v-2l7 1h3l4 1v-2l3 1 1 1 5-2 5 2 4-1 6 2 1-2 5 1h6l2-1 8 1h112l1-2h2l1 2h13l5-1 5 1h3l1-2v3l3 1h-285l250 1v1l-330 1-36-1-3-3 9-1h6l2-1 6 1h13l1-2v2l6 1 1-2h9l4 1 2-1 6 1v2h41l1-2h16l3 1z" fill="#5D6579"/>
<path transform="translate(780,138)" d="m0 0h311v1l109 1v2h-419z" fill="#697183"/>
<path transform="translate(783,444)" d="m0 0 4 2h-2l-1 7 1 2 3 2-5 1v6l3 1-1 4h-2l1 3 2 4-3 1 3 5-2 7 1 7-2 1-1 3 4 1 2 2-5 4 4 5-4 2 2 6 2 2-4 3-1 3 4 1 2 2-5 2-1 4 3 1v5l-3 1 3 1-1 3v3 2l3 1-4 2 1 3 1 4-1 3h-2l1 24h1v8l-1 3 2 5-1 2h-2v5l3 1-1 5h-1v8l2 3-1 10-1 25 4-1v3l6 2v2l-3 1 2 2h-11l-1-16v-205l1-5h2z" fill="#5D6579"/>
<path transform="translate(922,462)" d="m0 0 3 4 1-2 1 2-1 2 6-1 3-1 1-2 1 4 261-1 4-2 5 1-1-3h2l1 2h6l2 2h9v-4h2v3l4 1h8v-2l5-1v2l3-1 1 1h3l1-2h3v2l4 1 1-3 4 3 26 1v1h-385v54h-1l-1-55h15l1-2-2-2z" fill="#5D6579"/>
<path transform="translate(921,257)" d="m0 0h3l2 4 5-1v2l8-1 3-2 1 5-7 2h-29l-1 65h-1l-1-6v-8h-3l-1-4 3-1h-2l-1-8v-3l1-4-1-4 4 2-1 6h2l-1-37 9-1 2-3h6z" fill="#5E667A"/>
<path transform="translate(903,551)" d="m0 0h65l-2 3h-3l-1 2v-2h-8l-6 2v-2l-5 2h-8l-1-1-13 2-2 3v-4l-9 1h-3-6l1-3 2 1z" fill="#5E667A"/>
<path transform="translate(906,277)" d="m0 0h1v68l20 1v2l4-1 3 1-2 4-4 1-4-2h-6l-1-3-1 4-5-3-1 5-7 1-1-3h3v-4l-4-1 3-1 1-12h-5l-1-2 6 1z" fill="#61697C"/>
<path transform="translate(860,667)" d="m0 0 1 2 6 1 1-2h9l4 1 2-1 6 1v2h-13l-4 1 4 2-49-1-3-3 9-1h6l2-1 6 1h13z" fill="#5E667A"/>
<path transform="translate(1206,463)" d="m0 0h2l1 2h6l2 2h9v-4h2v3l4 1h8v-2l5-1v2l3-1 1 1h3l1-2h3v2l4 1 1-3 4 3 26 1v1h-82v-1l-11-1 4-2 5 1z" fill="#5D6579"/>
<path transform="translate(781,627)" d="m0 0 4 2-1 11-1 25 4-1v3l6 2v2l-3 1 2 2h-11z" fill="#5D6579"/>
<path transform="translate(781,576)" d="m0 0h1l1 14h1v8l-1 3 2 5-1 2h-2v5l3 1-1 5h-1l-1 8-1 31h-1v-81z" fill="#61697C"/>
<path transform="translate(75,645)" d="m0 0h1l2 7 1 2 6 1 5 1v2h2l1-2 8 1 7 2-2 2h-30l-3-1z" fill="#2552C9"/>
<path transform="translate(905,277)" d="m0 0h1v54h-1l-1-6v-8h-3l-1-4 3-1h-2l-1-8v-3l1-4-1-4 4 2-1 6h2z" fill="#445C9C"/>
<path transform="translate(1414,371)" d="m0 0 3 2-2 5-11 12-4 3h-2l1-5 3-5 5-6v-2h3l1-2h3z" fill="#5C657C"/>
<path transform="translate(922,462)" d="m0 0 3 4 1-2 1 2-1 2 6-1 3-1 1-2v4l-1 1h-29v54h-1l-1-55h15l1-2-2-2z" fill="#4B5F92"/>
<path transform="translate(783,444)" d="m0 0 4 2h-2l-1 7 1 2 3 2-5 1v6l3 1-3 1-2 9h-1v-22l1-5h2z" fill="#60687C"/>
<path transform="translate(1392,409)" d="m0 0 5 2 16 9 8 8 2 5-3-2v-2l-5-2-2-4-7-3-4-2v-2h-3v-2l-5-1z" fill="#5F677C"/>
<path transform="translate(941,259)" d="m0 0 2 4-2 2-5 1h-15v-1l5-1 1-3 4-1v2l8-1z" fill="#60687C"/>
<path transform="translate(867,668)" d="m0 0h10l4 1 2-1 6 1v2h-13l-4 1 4 2h-12v-1l-6-1v-1l8-1z" fill="#60687C"/>
<path transform="translate(136,658)" d="m0 0 7 1 3-1 3 1 6-1 2 1v2h-36v-2z" fill="#2552C9"/>
<path transform="translate(1423,348)" d="m0 0 3 1-1 3 2 4 2-3-1 6-3 3v-3h-5l-2-3 2-1z" fill="#5D6579"/>
<path transform="translate(901,497)" d="m0 0h2l1 18h1v7h-2v2l-2-1-1-3v-4l1-7z" fill="#5D6579"/>
<path transform="translate(630,653)" d="m0 0 1 3 6-1v2l2 1h-2v2l-8 1-2-4z" fill="#2552C9"/>
<path transform="translate(860,667)" d="m0 0 1 2 5 1 1 3-4 1-9-1-2-3 1-1h7z" fill="#5D6579"/>
<path transform="translate(1329,508)" d="m0 0 4 2-3 1-1 12-1 4 2 1h-4l2-18z" fill="#5F677A"/>
<path transform="translate(890,343)" d="m0 0 5 3 5 1v1h-20v-2h8z" fill="#5E6679"/>
<path transform="translate(1412,626)" d="m0 0 4 1-2 4-9 9h-2v-2l4-3 2-5 4-2z" fill="#5F677A"/>
<path transform="translate(931,669)" d="m0 0h7l2 1-1 3h-10z" fill="#5F677A"/>
<path transform="translate(900,293)" d="m0 0 4 2-1 6h2v6l-2 2-3-8 1-4z" fill="#61697C"/>
<path transform="translate(1318,542)" d="m0 0 2 1-9 8h-16v-1l13-1 8-5z" fill="#636B7E"/>
<path transform="translate(783,444)" d="m0 0 4 2h-2l-1 7 1 2h-2v2h-2l-1-4 1-5h2z" fill="#5D6579"/>
<path transform="translate(926,347)" d="m0 0h5l3 1-2 4-4 1-4-4z" fill="#697183"/>
<path transform="translate(188,647)" d="m0 0h1v13l-5-2 1-6 2 2z" fill="#2552C9"/>
<path transform="translate(900,276)" d="m0 0h4v13l-2 3-2-6 1-4z" fill="#5D6579"/>
<path transform="translate(840,669)" d="m0 0 6 1 2 2-9 1v-3z" fill="#5F677B"/>
</svg>
